<?xml version="1.0" encoding="utf-8"?>
<!-- Generator: Adobe Illustrator 26.0.1, SVG Export Plug-In . SVG Version: 6.00 Build 0)  -->
<svg version="1.1" id="Layer_1" xmlns="http://www.w3.org/2000/svg" xmlns:xlink="http://www.w3.org/1999/xlink" x="0px" y="0px"
	 viewBox="0 0 62 49" style="enable-background:new 0 0 62 49;" xml:space="preserve">
<style type="text/css">
	.st0{fill:#FFFFFF;}
	.st1{fill:#A020F0;}
</style>
<path class="st0" d="M56.6,33.3c0,5.2-2,14-21.5,14H27C7.5,47.2,5.5,36.5,5.5,31.4h12c0,1.3,0.8,4.5,6.2,4.5h16.6
	c3.4,0,4.3-1.2,4.3-2.6c0-8.2-39.2,3.9-39.2-17.5c0-5.2,2-14,21.5-14H35c19.6,0,21.5,10.7,21.5,15.9H44.4c0-1.4-0.8-4.5-6.2-4.5
	H21.7c-3.5,0-4.2,1.1-4.2,2.6C17.5,23.3,56.6,11.9,56.6,33.3z"/>
</svg>
