<?xml version="1.0" encoding="utf-8"?>
<!-- Generator: Adobe Illustrator 26.0.1, SVG Export Plug-In . SVG Version: 6.00 Build 0)  -->
<svg version="1.1" id="Layer_1" xmlns="http://www.w3.org/2000/svg" xmlns:xlink="http://www.w3.org/1999/xlink" x="0px" y="0px"
	 viewBox="0 0 62 49" style="enable-background:new 0 0 62 49;" xml:space="preserve">
<style type="text/css">
	.st0{fill:#FFFFFF;}
	.st1{fill:#A020F0;}
</style>
<path class="st0" d="M56.5,33.2c0,5.1-2,13.9-21.3,13.9H27C7.6,47.1,5.7,36.5,5.7,31.3h12c0,1.3,0.8,4.4,6.1,4.4h16.5
	c3.4,0,4.2-1.2,4.2-2.5c0-8.1-39,3.9-39-17.4c0-5.2,2-13.9,21.4-13.9h8c19.4,0,21.4,10.6,21.4,15.8h-12c0-1.4-0.8-4.4-6.1-4.4H21.8
	c-3.5,0-4.2,1.1-4.2,2.5C17.6,23.4,56.5,12,56.5,33.2z"/>
</svg>
